<svg width="301" height="282" xmlns="http://www.w3.org/2000/svg">

 <g>
  <title>Layer 1</title>
  <g id="svg_5" stroke-width="0.3" stroke="#D0CACD" fill-opacity="0" fill="None">
   <path id="svg_6" d="m259,28c-12.19,-3.7 -27.22,1.73 -40,0c-12.78,-1.73 -26.99,0.91 -40,0c-13.01,-0.91 -25.87,0.67 -39,0c-13.13,-0.67 -26.78,0.86 -40,0c-13.22,-0.86 -25.65,1.68 -39,0c-13.35,-1.68 -25.94,0.91 -24,16c1.94,15.09 -0.83,24.92 0,39c0.83,14.08 -0.32,26.26 0,40c0.32,13.74 -0.03,26.34 0,40c0.03,13.66 0.27,25.08 0,39c-0.27,13.92 0.72,25.36 0,40c-0.72,14.64 13.58,13.79 26,13c12.42,-0.79 27.24,0.49 40,0c12.76,-0.49 26.15,0.5 39,0c12.85,-0.5 27.27,0.83 40,0c12.73,-0.83 27.79,1.72 40,0c12.21,-1.72 27.31,4.37 37.92,-1.08c10.6,-5.46 3.58,-24.07 5.08,-34.92c1.5,-10.85 -0.57,-27.06 0,-39c0.57,-11.94 -0.06,-27.84 0,-40c0.06,-12.16 0.44,-27.3 0,-39c-0.44,-11.7 1.18,-29.68 0,-40c-1.18,-10.32 5.29,-29.57 -6,-33m-28,30c0,6.33 0,12.67 0,19c-9.33,3.28 -20.09,1.99 -29.67,4.33c-9.58,2.34 -24.27,-2.25 -33.33,0.67c-9.06,2.92 0.56,24.9 -3,32c23.33,0 46.67,0 70,0c0,6.67 0,13.33 0,20c-6.33,0 -12.67,0 -19,0c0,30.67 0,61.33 0,92c-7.33,0 -14.67,0 -22,0c0,-30.67 0,-61.33 0,-92c-10,0 -20,0 -30,0c1.64,32.44 -2.86,63.66 -16,92c-8.33,0 -16.67,0 -25,0c6.86,-14.34 12.21,-23.92 14.78,-40.22c2.57,-16.3 4.51,-32.68 4.22,-50.78c-0.29,-18.1 0.84,-35.51 0,-55c-0.84,-19.49 20.23,-19.78 37,-18c16.77,1.78 35.82,-1.92 52,-4m-114,6c12.79,2.98 9.87,19.01 10,30c0.13,10.99 -0.01,29.34 0,41c0.01,11.66 0.11,28.89 0,40c-0.11,11.11 3.12,28.26 -10.03,30.97c-13.14,2.72 -25.75,1.8 -39.04,0.1c-13.29,-1.7 -11.12,-17.95 -10.93,-29.07c0.19,-11.12 -0.1,-29.52 0,-41c0.1,-11.48 -0.07,-29.55 0,-40c0.07,-10.45 -2.94,-29.96 9.68,-31.32c12.61,-1.36 28.02,-3.54 40.32,-0.68z"/>
  </g>
  <g id="svg_7" stroke-width="0.3" stroke="#F8F9FB" fill-opacity="0" fill="None">
   <path id="svg_8" d="m231,58c-16.18,2.08 -35.23,5.78 -52,4c-16.77,-1.78 -37.84,-1.49 -37,18c0.84,19.49 -0.29,36.9 0,55c0.29,18.1 -1.65,34.48 -4.22,50.78c-2.57,16.3 -7.92,25.88 -14.78,40.22c8.33,0 16.67,0 25,0c13.14,-28.34 17.64,-59.56 16,-92c10,0 20,0 30,0c0,30.67 0,61.33 0,92c7.33,0 14.67,0 22,0c0,-30.67 0,-61.33 0,-92c6.33,0 12.67,0 19,0c0,-6.67 0,-13.33 0,-20c-23.33,0 -46.67,0 -70,0c3.56,-7.1 -6.06,-29.08 3,-32c9.06,-2.92 23.75,1.67 33.33,-0.67c9.58,-2.34 20.34,-1.05 29.67,-4.33c0,-6.33 0,-12.67 0,-19z"/>
  </g>
  <g id="svg_9" stroke-width="0.3" stroke="#F8F9FB" fill-opacity="0" fill="None">
   <path id="svg_10" d="m117,64c-12.3,-2.86 -27.71,-0.68 -40.32,0.68c-12.62,1.36 -9.61,20.87 -9.68,31.32c-0.07,10.45 0.1,28.52 0,40c-0.1,11.48 0.19,29.88 0,41c-0.19,11.12 -2.36,27.37 10.93,29.07c13.29,1.7 25.9,2.62 39.04,-0.1c13.15,-2.71 9.92,-19.86 10.03,-30.97c0.11,-11.11 0.01,-28.34 0,-40c-0.01,-11.66 0.13,-30.01 0,-41c-0.13,-10.99 2.79,-27.02 -10,-30m-14,19c5.39,2.7 1.28,17.31 2,24c0.72,6.69 0.38,19.37 0,27c-0.38,7.63 1.74,19.34 0,27c-1.74,7.66 4.78,20.01 -1.11,25.89c-5.89,5.88 -18,-0.81 -14.89,-9.89c3.11,-9.08 -1.14,-17.99 0,-27c1.14,-9.01 0.08,-18.04 0,-27c-0.08,-8.96 1.35,-18.13 0,-27c-1.35,-8.87 2.95,-18.53 14,-13z"/>
  </g>
  <g id="svg_11" stroke-width="0.3" stroke="#D0CACD" fill-opacity="0" fill="None">
   <path id="svg_12" d="m103,83c-11.05,-5.53 -15.35,4.13 -14,13c1.35,8.87 -0.08,18.04 0,27c0.08,8.96 1.14,17.99 0,27c-1.14,9.01 3.11,17.92 0,27c-3.11,9.08 9,15.77 14.89,9.89c5.89,-5.88 -0.63,-18.23 1.11,-25.89c1.74,-7.66 -0.38,-19.37 0,-27c0.38,-7.63 0.72,-20.31 0,-27c-0.72,-6.69 3.39,-21.3 -2,-24z"/>
  </g>
  <g stroke="None" id="svg_17" fill="#D0CACD">
   <path stroke="null" fill="#f22457" id="svg_18" d="m295.32967,-8.62395c-17.17285,-4.79976 -38.34659,2.24421 -56.3506,0c-18.00402,-2.24421 -38.02257,1.18048 -56.3506,0c-18.32803,-1.18048 -36.44475,0.86915 -54.94184,0c-18.49709,-0.86915 -37.72673,1.11562 -56.3506,0c-18.62387,-1.11562 -36.13482,2.17935 -54.94184,0c-18.80701,-2.17935 -36.54337,1.18048 -33.81036,20.75573c2.733,19.57525 -1.16928,32.32705 0,50.59209c1.16928,18.26504 -0.4508,34.06534 0,51.88933c0.4508,17.82398 -0.04226,34.16912 0,51.88933c0.04226,17.7202 0.38037,32.53461 0,50.59209c-0.38037,18.05749 1.01431,32.89783 0,51.88933c-1.01431,18.99149 19.13103,17.88884 36.62789,16.86403c17.49686,-1.02481 38.37476,0.63564 56.3506,0c17.97584,-0.63564 36.83921,0.64862 54.94184,0c18.10263,-0.64862 38.41702,1.0767 56.3506,0c17.93358,-1.0767 39.14958,2.23124 56.3506,0c17.20102,-2.23124 38.47337,5.66891 53.42037,-1.40101c14.93291,-7.08289 5.04338,-31.2244 7.15653,-45.29938c2.11315,-14.07498 -0.803,-35.10313 0,-50.59209c0.803,-15.48896 -0.08453,-36.11497 0,-51.88933c0.08453,-15.77435 0.61986,-35.41446 0,-50.59209c-0.61986,-15.17763 1.66234,-38.50188 0,-51.88933c-1.66234,-13.38745 7.45237,-38.35918 -8.45259,-42.80869z"/>
  </g>
  <g stroke="None" id="svg_19" fill="#F8F9FB">
   <path stroke="null" id="svg_20" d="m249.42404,40.53968c-18.70239,2.35513 -40.72221,6.54455 -60.10658,4.5291c-19.38437,-2.01545 -43.73909,-1.68709 -42.76814,20.38095c0.97095,22.06804 -0.33521,41.78095 0,62.27513c0.33521,20.49418 -1.90723,39.04085 -4.87788,57.49693c-2.97065,18.45608 -9.15469,29.30328 -17.08414,45.5401c9.62861,0 19.26878,0 28.89739,0c15.18847,-32.08868 20.39,-67.43831 18.49433,-104.16931c11.55896,0 23.11791,0 34.67687,0c0,34.72688 0,69.44243 0,104.16931c8.47272,0 16.95699,0 25.42971,0c0,-34.72688 0,-69.44243 0,-104.16931c7.31682,0 14.6452,0 21.96202,0c0,-7.55227 0,-15.09323 0,-22.6455c-26.96705,0 -53.94565,0 -80.9127,0c4.11499,-8.03915 -7.00473,-32.92656 3.46769,-36.2328c10.47242,-3.30624 27.45252,1.8909 38.526,-0.75862c11.07348,-2.64952 23.51092,-1.18889 34.29543,-4.90275c0,-7.1673 0,-14.34593 0,-21.51323z"/>
  </g>
  <g stroke="None" id="svg_21" fill="#F8F9FB">
   <path stroke="null" id="svg_22" d="m109.64374,50.90548c-14.77245,-3.13116 -33.28004,-0.74447 -48.42481,0.74447c-15.15677,1.48894 -11.54173,22.84872 -11.6258,34.2895c-0.08407,11.44078 0.1201,31.22403 0,43.79246c-0.1201,12.56844 0.22819,32.71297 0,44.88728c-0.22819,12.17431 -2.83439,29.96499 13.12706,31.82617c15.96145,1.86118 31.10621,2.86841 46.88751,-0.10948c15.79331,-2.96694 11.91404,-21.74296 12.04615,-33.90632c0.13211,-12.16336 0.01201,-31.02696 0,-43.79246c-0.01201,-12.7655 0.15613,-32.8553 0,-44.88728c-0.15613,-12.03198 3.35082,-29.58181 -12.01012,-32.84435z"/>
  </g>
  <g stroke="None" id="svg_23" fill="#D0CACD">
   <path stroke="null" fill="#f22457" id="svg_24" d="m94.46233,73.56391c-17.25159,-5.82876 -23.96488,4.35312 -21.85722,13.70233c2.10766,9.3492 -0.1249,19.01461 0,28.45868c0.1249,9.44406 1.7798,18.96191 0,28.45868c-1.7798,9.49677 4.85542,18.88813 0,28.45868c-4.85542,9.57055 14.05107,16.62198 23.24671,10.42431c9.19564,-6.19767 -0.98357,-19.21488 1.73297,-27.28871c2.71654,-8.07383 -0.59327,-20.41647 0,-28.45868c0.59327,-8.04221 1.12409,-21.40725 0,-28.45868c-1.12409,-7.05143 5.29257,-22.45073 -3.12246,-25.2966z"/>
  </g>
  <polyline stroke-linecap="round" id="svg_25" points="-16.891302772624982,155.94565203327008 -16.891302772624982,155.94565203327008 " stroke="#0c0003" fill="none"/>
 </g>
</svg>